# xmcd CD database file generated by OrangeCD 6.3
#
# Track frame offsets:
#	150
#	12176
#	39905
#	63351
#	102019
#	122338
#	133987
#	152484
#	198427
#	207842
#	222694
#	236961
#
# Disc length: 3357 seconds
#
# Revision: 2
# Processed by: cddbd v1.5.2PL0 Copyright (c) Steve Scherf et al.
# Submitted via: OrangeCD 6.3
#
DISCID=a60d1b0c
DTITLE=Various Artist - Big Blues Collection
DYEAR=1900
DGENRE=Blues
TTITLE0=B. B. King - How blue can you get ?
TTITLE1=B. B. King - Sweet Sixteen
TTITLE2=B. B. King - Ghetto woman
TTITLE3=B. B. King - Why i sing the blues
TTITLE4=B. B. King - Hummingbird
TTITLE5=B. B. King - All over again
TTITLE6=B. B. King - Guess who
TTITLE7=B. B. King - Lucille
TTITLE8=B. B. King - Sneaking around
TTITLE9=B. B. King - I go some help..
TTITLE10=B. B. King - Ain't nobody home
TTITLE11=B. B. King - I like live the love
EXTD=Efes Pilsener Blues CollectionTome 3
EXTT0=
EXTT1=
EXTT2=
EXTT3=
EXTT4=
EXTT5=
EXTT6=
EXTT7=
EXTT8=
EXTT9=
EXTT10=
EXTT11=
PLAYORDER=
